<svg className="icon" version="1.1" id="flag-icon-css-af" x="0px" y="0px" viewBox="0 0 512 512" xml:space="preserve"><style type="text/css">
	.st0{fill:#7FBFEA;}
	.st1{clip-path:url(#SVGID_2_);enable-background:new    \\;}
	.st2{clip-path:url(#SVGID_4_);}
	.st3{clip-path:url(#SVGID_6_);fill:#D8D8D8;}
	.st4{clip-path:url(#SVGID_8_);}
	.st5{clip-path:url(#SVGID_10_);enable-background:new    ;}
	.st6{clip-path:url(#SVGID_12_);}
	.st7{clip-path:url(#SVGID_14_);}
	.st8{clip-path:url(#SVGID_16_);fill:#2A8CDD;}
	.st9{clip-path:url(#SVGID_18_);}
	.st10{clip-path:url(#SVGID_20_);fill:#9DD14A;}
	.st11{clip-path:url(#SVGID_22_);}
	.st12{clip-path:url(#SVGID_24_);fill:#9DD14A;}
	.st13{clip-path:url(#SVGID_26_);}
	.st14{clip-path:url(#SVGID_28_);fill:#9DD14A;}
	.st15{clip-path:url(#SVGID_30_);}
	.st16{clip-path:url(#SVGID_32_);fill:#9DD14A;}
	.st17{clip-path:url(#SVGID_34_);}
	.st18{clip-path:url(#SVGID_36_);fill:#9DD14A;}
	.st19{clip-path:url(#SVGID_38_);}
	.st20{clip-path:url(#SVGID_40_);fill:#9DD14A;}
	.st21{clip-path:url(#SVGID_42_);}
	.st22{clip-path:url(#SVGID_44_);fill:#9DD14A;}
	.st23{clip-path:url(#SVGID_46_);}
	.st24{clip-path:url(#SVGID_48_);fill:#9DD14A;}
	.st25{clip-path:url(#SVGID_50_);}
	.st26{clip-path:url(#SVGID_52_);fill:#9DD14A;}
	.st27{clip-path:url(#SVGID_54_);}
	.st28{clip-path:url(#SVGID_56_);enable-background:new    ;}
	.st29{clip-path:url(#SVGID_58_);}
	.st30{clip-path:url(#SVGID_60_);}
	.st31{clip-path:url(#SVGID_62_);fill:#9DD14A;}
	.st32{clip-path:url(#SVGID_64_);}
	.st33{clip-path:url(#SVGID_66_);fill:#9DD14A;}
	.st34{clip-path:url(#SVGID_68_);}
	.st35{clip-path:url(#SVGID_70_);fill:#9DD14A;}
	.st36{clip-path:url(#SVGID_72_);}
	.st37{clip-path:url(#SVGID_74_);fill:#9DD14A;}
	.st38{clip-path:url(#SVGID_76_);}
	.st39{clip-path:url(#SVGID_78_);fill:#2A8CDD;}
	.st40{clip-path:url(#SVGID_80_);}
	.st41{clip-path:url(#SVGID_82_);fill:#2A8CDD;}
	.st42{clip-path:url(#SVGID_84_);}
	.st43{clip-path:url(#SVGID_86_);fill:#2A8CDD;}
	.st44{clip-path:url(#SVGID_88_);}
	.st45{clip-path:url(#SVGID_90_);fill:#9DD14A;}
</style><rect x="-0.3" className="st0" width="512" height="512"></rect><g><defs><circle id="SVGID_1_" cx="255.7" cy="256" r="256"></circle></defs><clipPath id="SVGID_2_"><use xlink:href="#SVGID_1_" style="overflow: visible;"></use></clipPath><g className="st1"><g><defs><rect id="SVGID_3_" x="-40.3" y="-40" width="592" height="592"></rect></defs><clipPath id="SVGID_4_"><use xlink:href="#SVGID_3_" style="overflow: visible;"></use></clipPath><g className="st2"><defs><rect id="SVGID_5_" x="-0.3" width="512" height="512"></rect></defs><clipPath id="SVGID_6_"><use xlink:href="#SVGID_5_" style="overflow: visible;"></use></clipPath><rect x="-40.3" y="-40" className="st3" width="592" height="592"></rect></g><g className="st2"><defs><rect id="SVGID_7_" x="-16.3" y="-14.8" width="534.8" height="534.8"></rect></defs><clipPath id="SVGID_8_"><use xlink:href="#SVGID_7_" style="overflow: visible;"></use></clipPath><g className="st4"><defs><rect id="SVGID_9_" x="-0.3" width="512" height="512"></rect></defs><clipPath id="SVGID_10_"><use xlink:href="#SVGID_9_" style="overflow: visible;"></use></clipPath><g className="st5"><g><defs><rect id="SVGID_11_" x="-16.3" y="-16" width="536" height="536"></rect></defs><clipPath id="SVGID_12_"><use xlink:href="#SVGID_11_" style="overflow: visible;"></use></clipPath><g className="st6"><defs><path id="SVGID_13_" d="M518.5,252.6c0,147.7-119.7,267.4-267.4,267.4C103.4,520-16.3,400.3-16.3,252.6
										c0-147.7,119.7-267.4,267.4-267.4C398.8-14.8,518.5,104.9,518.5,252.6"></path></defs><clipPath id="SVGID_14_"><use xlink:href="#SVGID_13_" style="overflow: visible;"></use></clipPath><g className="st7"><defs><rect id="SVGID_15_" x="-0.3" width="512" height="512"></rect></defs><clipPath id="SVGID_16_"><use xlink:href="#SVGID_15_" style="overflow: visible;"></use></clipPath><rect x="-56.3" y="-54.8" className="st8" width="614.8" height="614.8"></rect></g></g></g></g></g></g><g className="st2"><defs><path id="SVGID_17_" d="M161.2,476.9c0,0,12.7,16.5,21.7,18.7c9.1,2.3,9.2-5.6,3.5-9.2c-5.7-3.7-14.2-23.9-10.5-26.1
						c3.7-2.3,14-1.7,10.6-9c-3.4-7.3,1.6-7.9,3.9-7.9c2.3,0,8.6-10.1,8.6-22.5c0-12.4,13.6-4.5,19.3-8.4c5.7-3.9,0-18.6,6.2-25.9
						c6.2-7.3,23.9-30.4,0-37.7c-23.9-7.3-33.5-12.9-44.3-9.6c-10.8,3.4,2.8-5.1-0.6-10.1c-3.4-5.1-41.5-38.8-77.2-33.2
						c0,0-12.5,0.4-15.9-12.8c-3.4-13.1-7.4-21.6-16.5-19.9c0,0,10.8-21.4,0-22c-10.8-0.6-10.2,12.9-15.9,10.1
						c-5.7-2.8-9.1-23.1,3.4-29.3c0,0,10.2,9,17,0l6.8-9c0,0,6.2,15.8,1.7,22c0,0,3.4,10.1,10.2,6.2c6.8-3.9,2.3-9,0-20.8
						c-2.3-11.8,2.3-14.1,12.5-19.1c10.2-5.1,6.8-8.4,7.4-18c0.6-9.6,13.1-8.4,17-9c4-0.6,9.1-6.2,6.8-10.7
						c-2.3-4.5,6.2,5.6,14.8,2.3c8.5-3.4,19.9-14.6,6.8-19.7c-13.1-5.1,2.8-11.3,9.1-10.7c6.2,0.6-3.4,9.6,0,12.9
						c3.4,3.4,5.1-1.1,13.1,2.3c8,3.4,18.7,3.4,11.4-11.8c-7.4-15.2-0.6-25.3-14.8-28.2c0,0-10.2-23.6-22.2-14.6
						c0,0,3.4-12.4-20.4-13.5c0,0-6.2,0-4.2,12.8c0,0-9.2,1.3-8.9,5.9c0.3,4.6,5.9,6.2,0.7,10.1c-5.3,3.9-6.9,2.9-6.9,10.8
						c0,7.9-8.3,8.2-5.3,0.7c3-7.5,4.9-7.9-7.3-11.4c-12.2-3.6-13.2-10.1-7.9-15.4c5.3-5.2,9.9-11.4,17.2-12.1
						c7.3-0.7,6.3-8.8,6.3-8.8s3,7.5,5,7.9c2,0.3,6.6-2,3.6-9.8c-3-7.9,4-0.4,8.3-2.3c4.3-2,1.6-2.6,1.6-6.2c0-1.8,3,0,3,0
						s3.9-15.1,10.2-7.9c6.3,7.2-9.2,14.8-9.6,19c-0.3,4.3,17.5,11.6,19.8,12.6c2.3,1,2.3-3.7,4.6-6c0,0,7.9,4.5,3.3-4.9
						c-4.6-9.5,6.3-2,6.3-2s13.2-4.9,4-10.8c-9.2-5.9-5.3-10.5-5.3-10.5s-12.5-10.1-15.5-8.5c-3,1.6-8.9-7.9,0.3-8.2
						c9.2-0.3,11.2-5.2,17.8-9.2c6.6-3.9,16.2-5.9,17.5-3.3c1.3,2.6,5,1.6,8.6,1c3.6-0.7,3.3,7.5-1.3,12.1s5.3,4.6,5.3,4.6
						s-5.3,0.3-7.3,2.9c-2,2.6,3.3,3.3,3.3,3.3s-21.1,33.4,15.2,34c0,0,11.5,15.4,14.5-5.2c3-20.6,12.2-19.6,12.2-19.6
						s7.6-1.3,7.6-10.8c0,0,5,1.6,8.9-2.9c4-4.6,6.7-16.7-5.6-17.7c0,0-2.4-3.9,2.3-7.2c4.6-3.3-3.3-8.5-7.9-8.2
						c-4.6,0.3,1.3-12.4-13.2-11.1c-14.5,1.3-14.8,8.5-14.8,8.5s-4.6,2.6-14.9-3.6C196-1.2,161,14.2,158.7,21.4
						c-2.3,7.2,0.3,11.5-10.9,7.5C136.6,25,143.5,41,143.5,41l-10.9,11.8l3,3.9l-9.2,6.9l-1.3-8.2c0,0,21.8-21.3-0.7-14.1
						c0,0-2.3,14.7-7.3,16.7c-5,2-4.6-3.3-9.6,3.9c0,0-2,3.3-4.6,0.3c-2.6-2.9-7.6,1-7.6,1s-7.3,3.6-7.9-3.9
						C86.8,51.8,75.6,56,75.6,56c-15,13.1-28.1,27.7-39.7,43.4c0,0-4.1,26.6-13.3,36.7c-9.1,10.1-25.9,63.4-4.6,104.2
						c0,0,1.7,2.9,2.4-2.5c0.7-5.4-3.2-20.8-1.4-21.9c1.8-1.1,4.6,18.1,5,25.3c0.5,7.2,10.5,21.5,13.4,23.3c3,1.8,12.3,5.4,13.2,2.7
						c0.9-2.7,20.2,15.8,20.2,15.8s8.7,13.4,14.2,15.4c5.5,2,8.7,4.5,4.3,13.2c-4.3,8.6,2.5,13.6-0.2,17.7
						c-2.7,4.1-8.9,18.8-1.8,29.7c7.1,10.9,12.4,23.1,25.2,30.8c12.8,7.7,19.2,12.5,19.7,27C132.7,431.5,161.2,476.9,161.2,476.9"></path></defs><clipPath id="SVGID_18_"><use xlink:href="#SVGID_17_" style="overflow: visible;"></use></clipPath><g className="st9"><defs><rect id="SVGID_19_" x="-0.3" width="512" height="512"></rect></defs><clipPath id="SVGID_20_"><use xlink:href="#SVGID_19_" style="overflow: visible;"></use></clipPath><rect x="-32.3" y="-40" className="st10" width="336" height="576"></rect></g></g><g className="st2"><defs><path id="SVGID_21_" d="M265.1,48.2c2.9-0.1,11.1-1.6,14,4.9c2.9,6.6-4.2,11.5-10.9,10.8c-6.7-0.7-12.4-2.1-12.4-9.6
						S262,48.3,265.1,48.2"></path></defs><clipPath id="SVGID_22_"><use xlink:href="#SVGID_21_" style="overflow: visible;"></use></clipPath><g className="st11"><defs><rect id="SVGID_23_" x="-0.3" width="512" height="512"></rect></defs><clipPath id="SVGID_24_"><use xlink:href="#SVGID_23_" style="overflow: visible;"></use></clipPath><rect x="215.7" y="8" className="st12" width="104" height="96"></rect></g></g><g className="st2"><defs><path id="SVGID_25_" d="M297.5,1.5c0,0,5.6-2.4,8.5-1.2c2.9,1.2,5.4,1.6,3.1,3.4c-2.3,1.8,3.3,1.2,2.5,2.7
						c-0.8,1.5-2.9,2.5-9.9,0C294.6,3.9,294.6,3.5,297.5,1.5"></path></defs><clipPath id="SVGID_26_"><use xlink:href="#SVGID_25_" style="overflow: visible;"></use></clipPath><g className="st13"><defs><rect id="SVGID_27_" x="-0.3" width="512" height="512"></rect></defs><clipPath id="SVGID_28_"><use xlink:href="#SVGID_27_" style="overflow: visible;"></use></clipPath><rect x="255.7" y="-40" className="st14" width="96" height="88"></rect></g></g><g className="st2"><defs><path id="SVGID_29_" d="M146,16.3c2.4-1.2,6.4,1.3,5.6,3.6c-0.8,2.2-1.9,4.7-4.7,4c-2.8-0.6-4.1-2.2-2.5-4.9L146,16.3z"></path></defs><clipPath id="SVGID_30_"><use xlink:href="#SVGID_29_" style="overflow: visible;"></use></clipPath><g className="st15"><defs><rect id="SVGID_31_" x="-0.3" width="512" height="512"></rect></defs><clipPath id="SVGID_32_"><use xlink:href="#SVGID_31_" style="overflow: visible;"></use></clipPath><rect x="103.7" y="-24" className="st16" width="88" height="88"></rect></g></g><g className="st2"><defs><path id="SVGID_33_" d="M91,40.7c0.2-0.8,7.1-9.9,10.3-8.6c3.3,1.4,4.4,2.3,2.7,5c-1.7,2.7,4.6,1,5.7-0.1
						c1.1-1.1,4.4,3.8-1.1,9.8c-5.5,6-10.3,4.8-13.5,6c-3.2,1.2-6.6,6.1-7.3,0.7c-0.7-5.4,1.7-3.5,2.4-5.8
						C91,45.3,90.2,43.6,91,40.7"></path></defs><clipPath id="SVGID_34_"><use xlink:href="#SVGID_33_" style="overflow: visible;"></use></clipPath><g className="st17"><defs><rect id="SVGID_35_" x="-0.3" width="512" height="512"></rect></defs><clipPath id="SVGID_36_"><use xlink:href="#SVGID_35_" style="overflow: visible;"></use></clipPath><rect x="47.7" y="-8" className="st18" width="104" height="104"></rect></g></g><g className="st2"><defs><path id="SVGID_37_" d="M114.7,24.7c0,0-4.2,3.5-2.6,5.6c1.6,2.1,2.7,1.9,4.7,1.2c2-0.8,4.4-4.4,1.9-4.2
						c-2.5,0.2-2.7-0.1-1.8-1.1C117.7,25.3,116.5,22.8,114.7,24.7"></path></defs><clipPath id="SVGID_38_"><use xlink:href="#SVGID_37_" style="overflow: visible;"></use></clipPath><g className="st19"><defs><rect id="SVGID_39_" x="-0.3" width="512" height="512"></rect></defs><clipPath id="SVGID_40_"><use xlink:href="#SVGID_39_" style="overflow: visible;"></use></clipPath><rect x="71.7" y="-16" className="st20" width="88" height="88"></rect></g></g><g className="st2"><defs><path id="SVGID_41_" d="M79.7,243.8c0,0,2.6-4.8,8-3.7c5.5,1.1,13,1.1,19.4,7.7c0,0,3.1,3.5,4.2,3.7c1.1,0.2,0.7,5.9-10.6,4
						c-11.3-2-8.4-11.9-12.8-10.1C83.6,247.2,82.3,249.1,79.7,243.8"></path></defs><clipPath id="SVGID_42_"><use xlink:href="#SVGID_41_" style="overflow: visible;"></use></clipPath><g className="st21"><defs><rect id="SVGID_43_" x="-0.3" width="512" height="512"></rect></defs><clipPath id="SVGID_44_"><use xlink:href="#SVGID_43_" style="overflow: visible;"></use></clipPath><rect x="39.7" y="200" className="st22" width="112" height="96"></rect></g></g><g className="st2"><defs><path id="SVGID_45_" d="M109.9,251.3c0,0-0.4-4.7,7-2.9c7.3,1.8,6.2,3.4,9.6,3.6c3.4,0.2-0.4,3.8-8.3,3.7
						c-7.9-0.1-16.8,1.3-13.9-1S109.9,251.3,109.9,251.3"></path></defs><clipPath id="SVGID_46_"><use xlink:href="#SVGID_45_" style="overflow: visible;"></use></clipPath><g className="st23"><defs><rect id="SVGID_47_" x="-0.3" width="512" height="512"></rect></defs><clipPath id="SVGID_48_"><use xlink:href="#SVGID_47_" style="overflow: visible;"></use></clipPath><rect x="63.7" y="208" className="st24" width="104" height="88"></rect></g></g><g className="st2"><defs><path id="SVGID_49_" d="M360,8c0,0-2.2,11.2,5.5,16c7.7,4.9,10.6,9.2,15.5,7.7c4.9-1.5,2.9-3.6-3.7-8.2
						c-6.6-4.6-12.3-10.1-10.6-12.7L360,8z"></path></defs><clipPath id="SVGID_50_"><use xlink:href="#SVGID_49_" style="overflow: visible;"></use></clipPath><g className="st25"><defs><rect id="SVGID_51_" x="-0.3" width="512" height="512"></rect></defs><clipPath id="SVGID_52_"><use xlink:href="#SVGID_51_" style="overflow: visible;"></use></clipPath><rect x="319.7" y="-32" className="st26" width="104" height="104"></rect></g></g><g className="st2"><defs><rect id="SVGID_53_" x="271.9" y="25.3" width="247" height="389.2"></rect></defs><clipPath id="SVGID_54_"><use xlink:href="#SVGID_53_" style="overflow: visible;"></use></clipPath><g className="st27"><defs><rect id="SVGID_55_" x="-0.3" width="512" height="512"></rect></defs><clipPath id="SVGID_56_"><use xlink:href="#SVGID_55_" style="overflow: visible;"></use></clipPath><g className="st28"><g><defs><rect id="SVGID_57_" x="271.7" y="24" width="256" height="416"></rect></defs><clipPath id="SVGID_58_"><use xlink:href="#SVGID_57_" style="overflow: visible;"></use></clipPath><g className="st29"><defs><path id="SVGID_59_" d="M385.1,25.3c0,0-0.6,6.9,10.3,12.8c10.9,5.9-6.7,10.8-10.3,7c-3.6-3.8-5.3-0.6-3.9,6.5
										c1.4,7.1-2.5,13.2-6.4,7c-3.9-6.2,1.7-5.6,1.7-5.6s3.1-4.9-5.1-7.4c-8.2-2.5-25.2-15.4-34.7-7.6
										c-9.5,7.8-3.3,13.3-5.9,18.2c-2.5,4.9-11.7,9.5-10.6,14.2c1.1,4.6,2.5,10.1,10.3,11.4c7.8,1.4,7.2-4.6,16.2,1.4
										c0,0,3.9,6.8-2.5,10.1c0,0-1.7,4.6,4.7,3.3c6.4-1.4,8.9-9,8.4-12.5c-0.6-3.5-0.6-7.1-4.2-9.8c-3.6-2.7-1.9-7.2-0.8-8.6
										c1.1-1.5,2.2-5.5,0.6-8.3c-1.7-2.7,3.6-4.3,4.2,1.3c0.6,5.6-3.3,12.9,3.9,15.9c7.2,3,12.3-0.8,13.9,1.1
										c1.7,1.9,0.8,3-2,3.3c-2.8,0.3-4.7,2.2-4.2,4.4c0.6,2.2,3.9,4.1-0.6,5.4c-4.5,1.4-4.7,2.7-2.8,5.2c2,2.5-6.7,9.3-17.6,6.8
										c-10.9-2.5-7.5-11.7-12-12.5c-4.5-0.8,1.1,10.1,1.1,10.1s-0.3,2.4-5.8,3c-5.6,0.6-2.2,10.1-6.1,11.5
										c-3.9,1.4-10,4.4-17.6,5.7c-7.5,1.4,0.3,3.8,6.7,5.4c6.4,1.6,3.4,13.6-4.3,12.5c-7.7-1.1-22.8,15.3-8.1,24.5
										c14.7,9.3,28.9,3.3,29.7-12.5c0.8-15.8,8.3-7.9,15.9-9c7.5-1.1,19.9,5.7,24.1,11.2c4.3,5.4-4.9,6-6.6,9
										c-1.7,3,9.2,5.7,10,1.1c0.8-4.6,7.8-6.3-2-18c-9.8-11.7-11.1-12-5.6-10.6c5.6,1.4,17.8,14.4,20.6,22.9
										c2.8,8.4,15,19.9,20.1,17.2c5-2.7-11.4-10.9-8.9-16.9c2.5-6,3.9-4.6,7.2,2.5c3.3,7.1,9.2,9,16.4,6.8
										c7.2-2.2,12,18.8,0,19.6c-12,0.8-22-3-25.1-6.8c-3.1-3.8-7.8-2.2-9.5,1.6c-1.7,3.8-12.5,2.7-18.7-2.2
										c-6.1-4.9-4.2-15-12.3-15.3c-8.1-0.3-23.1-0.5-32,5.4c-8.9,6-10.3-1.6-17,0.8c-6.7,2.5-11.1,9.5-11.1,19.6
										c0,10.1-14.8,0.8-20.1,15c-5.3,14.2-5.3,16.3-2.5,22.8c2.8,6.5-2.5,8.9-2.6,14.5c-0.2,5.5,1.9,14.6,8.1,18.4
										c6.2,3.8,9.3,4.8,11.6,12.2c2.3,7.4,18.3,15,28.9,7.7c10.6-7.2,6.7,1.5,13.6,0c6.9-1.5,13.3-7.7,17-2.6
										c3.6,5.2,4.2,9.1,11,7.6c6.9-1.5-5.5,9.7,1.4,19.9c6.9,10.2,11.4,29.3,4.6,39c-6.9,9.7-12.2,20.6-1.5,57.6
										c10.7,37,44.4-4.2,46.5-17.6c0,0-2.5-3.2,6.1-3.5c8.6-0.2,0-15.6,5.1-20.4c5.1-4.7,20.6-2.5,20.1-23.1
										c-0.5-20.6,8.4-41,19-42.7c10.7-1.7,20.1-49.4,8.9-37c0,0-10.2,4-6.6-4.7c3.6-8.7,25.7-14.6,23.4-29.5
										c-2.3-14.9-2-18.6-10.2-13.9c-8.1,4.7-16.5-16.4-13.5-18.4c3-2,7.9,2.7,9.9,8.9c2,6.2,7.1,0.7,11.2,2.5
										c4.1,1.7,10.2-1.7,13.5,7.2c3.3,8.9,12.3,43,17.6,70.8C524.6,225.4,510.9,96,385.1,25.3"></path></defs><clipPath id="SVGID_60_"><use xlink:href="#SVGID_59_" style="overflow: visible;"></use></clipPath><g className="st30"><defs><rect id="SVGID_61_" x="271.7" y="24" width="240" height="392"></rect></defs><clipPath id="SVGID_62_"><use xlink:href="#SVGID_61_" style="overflow: visible;"></use></clipPath><rect x="231.9" y="-14.7" className="st31" width="327" height="469.2"></rect></g></g></g></g></g></g><g className="st2"><defs><path id="SVGID_63_" d="M297,90.6c0,0,3.5-4.9,4.9-1.1c1.5,3.8,3.3,12.3-0.5,13.4c-3.9,1.1-5.3,2.8-4.9-2.8
						C296.9,94.3,294.2,94.2,297,90.6"></path></defs><clipPath id="SVGID_64_"><use xlink:href="#SVGID_63_" style="overflow: visible;"></use></clipPath><g className="st32"><defs><rect id="SVGID_65_" x="-0.3" width="512" height="512"></rect></defs><clipPath id="SVGID_66_"><use xlink:href="#SVGID_65_" style="overflow: visible;"></use></clipPath><rect x="255.7" y="48" className="st33" width="88" height="96"></rect></g></g><g className="st2"><defs><path id="SVGID_67_" d="M312.9,88.6c0,0-3.2-11.7-7.3-7.8c-4.1,4-0.7,8.6,2.9,12.6c3.6,4,4.6,4.7,3.4,8.6
						c-1.2,4,1.7,6.6-1.7,7.9c-3.4,1.4-0.9,3.8,3.4,0c4.3-3.8,5.3-4.8,8.7-3.4c3.4,1.4,8.4-2.3,3.1-6.2
						C320.1,96.3,311.6,93.4,312.9,88.6"></path></defs><clipPath id="SVGID_68_"><use xlink:href="#SVGID_67_" style="overflow: visible;"></use></clipPath><g className="st34"><defs><rect id="SVGID_69_" x="-0.3" width="512" height="512"></rect></defs><clipPath id="SVGID_70_"><use xlink:href="#SVGID_69_" style="overflow: visible;"></use></clipPath><rect x="263.7" y="40" className="st35" width="104" height="112"></rect></g></g><g className="st2"><defs><path id="SVGID_71_" d="M351.7,144.2c0,0,2.4,9.5,4.8,7.6c2.5-1.9,4.2-4.2,2.5-6.6C357.3,142.8,355.2,144.9,351.7,144.2"></path></defs><clipPath id="SVGID_72_"><use xlink:href="#SVGID_71_" style="overflow: visible;"></use></clipPath><g className="st36"><defs><rect id="SVGID_73_" x="-0.3" width="512" height="512"></rect></defs><clipPath id="SVGID_74_"><use xlink:href="#SVGID_73_" style="overflow: visible;"></use></clipPath><rect x="311.7" y="104" className="st37" width="88" height="88"></rect></g></g><g className="st2"><defs><path id="SVGID_75_" d="M421.1,129.5c0,0-11.4-14.5-12.6-6.2c-1.2,8.2-2.2,19.5,6.3,18.7c8.5-0.7,4.4-7.5,9.2-5.7
						c4.8,1.7,17.7,12.1,15.5,5.8c-2.2-6.3-6.3-7.5-10.6-11.8c-4.4-4.2,2.7-8.6-2.2-9.5c-4.8-1-5.1-2-4.6,4.8
						C422.5,132.2,421.1,129.5,421.1,129.5"></path></defs><clipPath id="SVGID_76_"><use xlink:href="#SVGID_75_" style="overflow: visible;"></use></clipPath><g className="st38"><defs><rect id="SVGID_77_" x="-0.3" width="512" height="512"></rect></defs><clipPath id="SVGID_78_"><use xlink:href="#SVGID_77_" style="overflow: visible;"></use></clipPath><rect x="367.7" y="80" className="st39" width="112" height="104"></rect></g></g><g className="st2"><defs><path id="SVGID_79_" d="M460.4,137.8c0,0-6.5-7.2-3.6-14.1c2.8-6.9-15-4.2-7,8.1c8,12.2,11.6,11.3,11.9,17.5
						c0.3,6.2,4.4,12.9,7.8,9.9c3.4-3,2.6-6.5,0-12.2c-2.6-5.8,4.7-3.4,0.3-6.8C465.3,136.9,462.4,140.5,460.4,137.8"></path></defs><clipPath id="SVGID_80_"><use xlink:href="#SVGID_79_" style="overflow: visible;"></use></clipPath><g className="st40"><defs><rect id="SVGID_81_" x="-0.3" width="512" height="512"></rect></defs><clipPath id="SVGID_82_"><use xlink:href="#SVGID_81_" style="overflow: visible;"></use></clipPath><rect x="407.7" y="80" className="st41" width="104" height="120"></rect></g></g><g className="st2"><defs><path id="SVGID_83_" d="M433.7,200.7c0,0,1.8-3.3,5.5,4.6c3.8,7.9,9.2,26.5,12.3,27.7c3.1,1.3,8.2,24.7-1.1,10.4
						c-9.3-14.2-9.5-23.1-13.9-30S429.8,204,433.7,200.7"></path></defs><clipPath id="SVGID_84_"><use xlink:href="#SVGID_83_" style="overflow: visible;"></use></clipPath><g className="st42"><defs><rect id="SVGID_85_" x="-0.3" width="512" height="512"></rect></defs><clipPath id="SVGID_86_"><use xlink:href="#SVGID_85_" style="overflow: visible;"></use></clipPath><rect x="391.7" y="160" className="st43" width="104" height="128"></rect></g></g><g className="st2"><defs><path id="SVGID_87_" d="M445.6,354.7c0,0,0,7.7-4.7,14.8c-4.7,7.1,7.4,9.7,10.4,1.1c3-8.5,13-17.3,12.5-25.6
						c-0.6-8.2,1.4-13.1-5.6-4.6c0,0-0.4,5.7-6.9,6C444.7,346.7,445.6,354.7,445.6,354.7"></path></defs><clipPath id="SVGID_88_"><use xlink:href="#SVGID_87_" style="overflow: visible;"></use></clipPath><g className="st44"><defs><rect id="SVGID_89_" x="-0.3" width="512" height="512"></rect></defs><clipPath id="SVGID_90_"><use xlink:href="#SVGID_89_" style="overflow: visible;"></use></clipPath><rect x="399.7" y="296" className="st45" width="104" height="120"></rect></g></g></g></g></g></svg>