<svg xmlns="http://www.w3.org/2000/svg" viewBox="0 0 218 69.76"><defs><style>.cls-1{fill:#ffe500}</style></defs><title>rizk</title><path d="M144.74.45l-46.67 3-4-3.25-24.76 12.23-9.86-7.94c.14.11-31.82 7.2-31.82 7.2L0 57.95l14.6 11.81q10.27-1.57 20.57-2.92 1.47-4.53 3-9.07l9.31 7.54q9.37-1.08 18.75-2c-.54-1.48-1.08-3-1.61-4.44L69.67 63q10.33-1 20.6-1.73l1.2-3.27 3.63 2.94q22.77-1.44 45.53-1.78l1.15-2.93 3.56 2.88c1.9 0 15.6 0 20.56.12l3.1-7.93 10.25 8.29q10.26.35 20.5 1-2.8-11.74-5.62-23.42 12-12 23.88-24.37L203.42 1s-27.75 5.14-27.47 4.86L169.53.62l-21.32 2.64z"/><path class="cls-1" d="M26.85 35.94l6 17.56q9.37-1.08 18.75-2c-2.13-5.81-6.28-17.42-6.28-17.42C63.51 31.57 74.2.55 45.64.12 31.79-.09 17.94.05 4.09 0 8 3.12 15.78 9.37 15.75 9.45 15.38 10.57 1.27 53.91 0 57.95Q10.27 56.37 20.57 55q3.1-9.51 6.28-19.06zm7.86-23.15c2-.05 4-.13 6-.13 5.69 0 5.2 9.27-1.82 9.63-4.55.23-7 .4-7.55.43q1.66-4.96 3.38-9.93z"/><path class="cls-1" d="M55.07 51.15q10.3-1 20.61-1.69C77.17 45.37 89.35 12.58 94.06.24L73.84.18v.09c-1.47 3.8-17.26 46.64-18.77 50.88zM99.33.25L94.9 11.7q9.58-.09 19.17-.13c-2.47 2.11-26.74 23.53-29.12 25.71q-2.23 5.93-4.45 11.85 22.77-1.44 45.53-1.78 2.2-5.6 4.42-11.22-9.59.06-19.19.26c4.77-4.18 26.54-22.75 29-24.8L144.74.45M151.3 47.43l8.62-22.05q2.37 11.18 4.73 22.41 10.26.35 20.5 1-2.8-11.74-5.62-23.42c2-2 17.93-18.19 23.88-24.37L181 .72c-1.7 1.71-15.72 15.7-18.86 18.82q3.67-9.43 7.35-18.91L149.32.48c-.37.93-12.8 32.21-18.58 46.83 1.9-.01 18.08.07 20.56.12z"/></svg>
